<svg width="400" height="250" viewBox="0 0 400 250" xmlns="http://www.w3.org/2000/svg">
  <defs>
    <linearGradient id="bg2" x1="0%" y1="0%" x2="100%" y2="100%">
      <stop offset="0%" style="stop-color:#4facfe;stop-opacity:1" />
      <stop offset="100%" style="stop-color:#00f2fe;stop-opacity:1" />
    </linearGradient>
    <linearGradient id="chart1" x1="0%" y1="0%" x2="100%" y2="100%">
      <stop offset="0%" style="stop-color:#10b981;stop-opacity:1" />
      <stop offset="100%" style="stop-color:#059669;stop-opacity:1" />
    </linearGradient>
    <linearGradient id="chart2" x1="0%" y1="0%" x2="100%" y2="100%">
      <stop offset="0%" style="stop-color:#3b82f6;stop-opacity:1" />
      <stop offset="100%" style="stop-color:#1d4ed8;stop-opacity:1" />
    </linearGradient>
  </defs>
  
  <!-- Background -->
  <rect width="400" height="250" fill="url(#bg2)"/>
  
  <!-- Dashboard Container -->
  <rect x="20" y="30" width="360" height="190" rx="8" fill="#ffffff" stroke="#e2e8f0" stroke-width="2"/>
  
  <!-- Header -->
  <rect x="20" y="30" width="360" height="40" rx="8" fill="#1e293b"/>
  <text x="35" y="50" font-family="Arial, sans-serif" font-size="14" font-weight="bold" fill="#ffffff">Analytics Dashboard</text>
  
  <!-- Stats Cards -->
  <rect x="35" y="80" width="70" height="40" rx="4" fill="#f8fafc" stroke="#e2e8f0"/>
  <text x="40" y="95" font-family="Arial, sans-serif" font-size="8" fill="#64748b">Revenue</text>
  <text x="40" y="108" font-family="Arial, sans-serif" font-size="12" font-weight="bold" fill="#10b981">$45,231</text>
  
  <rect x="115" y="80" width="70" height="40" rx="4" fill="#f8fafc" stroke="#e2e8f0"/>
  <text x="120" y="95" font-family="Arial, sans-serif" font-size="8" fill="#64748b">Users</text>
  <text x="120" y="108" font-family="Arial, sans-serif" font-size="12" font-weight="bold" fill="#3b82f6">12,543</text>
  
  <rect x="195" y="80" width="70" height="40" rx="4" fill="#f8fafc" stroke="#e2e8f0"/>
  <text x="200" y="95" font-family="Arial, sans-serif" font-size="8" fill="#64748b">Orders</text>
  <text x="200" y="108" font-family="Arial, sans-serif" font-size="12" font-weight="bold" fill="#f59e0b">1,234</text>
  
  <rect x="275" y="80" width="70" height="40" rx="4" fill="#f8fafc" stroke="#e2e8f0"/>
  <text x="280" y="95" font-family="Arial, sans-serif" font-size="8" fill="#64748b">Growth</text>
  <text x="280" y="108" font-family="Arial, sans-serif" font-size="12" font-weight="bold" fill="#10b981">+23.5%</text>
  
  <!-- Chart Area -->
  <rect x="35" y="135" width="150" height="70" rx="4" fill="#f8fafc" stroke="#e2e8f0"/>
  <text x="40" y="150" font-family="Arial, sans-serif" font-size="10" font-weight="bold" fill="#1e293b">Revenue Trend</text>
  
  <!-- Line Chart -->
  <polyline points="45,190 60,175 75,180 90,165 105,170 120,155 135,160 150,145 165,150" 
            stroke="url(#chart1)" stroke-width="3" fill="none"/>
  <circle cx="45" cy="190" r="2" fill="#10b981"/>
  <circle cx="60" cy="175" r="2" fill="#10b981"/>
  <circle cx="75" cy="180" r="2" fill="#10b981"/>
  <circle cx="90" cy="165" r="2" fill="#10b981"/>
  <circle cx="105" cy="170" r="2" fill="#10b981"/>
  <circle cx="120" cy="155" r="2" fill="#10b981"/>
  <circle cx="135" cy="160" r="2" fill="#10b981"/>
  <circle cx="150" cy="145" r="2" fill="#10b981"/>
  <circle cx="165" cy="150" r="2" fill="#10b981"/>
  
  <!-- Bar Chart -->
  <rect x="200" y="135" width="145" height="70" rx="4" fill="#f8fafc" stroke="#e2e8f0"/>
  <text x="205" y="150" font-family="Arial, sans-serif" font-size="10" font-weight="bold" fill="#1e293b">User Activity</text>
  
  <rect x="210" y="180" width="15" height="20" fill="url(#chart2)"/>
  <rect x="230" y="170" width="15" height="30" fill="url(#chart2)"/>
  <rect x="250" y="175" width="15" height="25" fill="url(#chart2)"/>
  <rect x="270" y="160" width="15" height="40" fill="url(#chart2)"/>
  <rect x="290" y="165" width="15" height="35" fill="url(#chart2)"/>
  <rect x="310" y="155" width="15" height="45" fill="url(#chart2)"/>
  <rect x="330" y="170" width="15" height="30" fill="url(#chart2)"/>
  
  <!-- Chart Icon -->
  <g transform="translate(350, 45)">
    <path d="M3 3v5a2 2 0 002 2h5m0-10v10m0-10L8 8l-2-2-2 2" stroke="#64748b" stroke-width="1.5" fill="none"/>
  </g>
</svg>
